<svg width="39" height="39" viewBox="0 0 39 39" fill="none" xmlns="http://www.w3.org/2000/svg">
<path d="M16.5061 0.7016C17.0631 0.248626 17.7697 0 18.5 0C19.2303 0 19.9369 0.248626 20.4939 0.7016L35.9106 13.2473C36.2519 13.5249 36.5262 13.8705 36.7143 14.26C36.9025 14.6495 37 15.0736 37 15.5029V34.0425C37 34.8269 36.6751 35.5791 36.0969 36.1338C35.5187 36.6884 34.7344 37 33.9167 37H22.0972C21.6883 37 21.2962 36.8442 21.0071 36.5669C20.718 36.2896 20.5556 35.9134 20.5556 35.5212V23.1983H16.4444V35.5212C16.4444 35.9134 16.282 36.2896 15.9929 36.5669C15.7038 36.8442 15.3117 37 14.9028 37H3.08333C2.26558 37 1.48132 36.6884 0.903088 36.1338C0.32485 35.5791 0 34.8269 0 34.0425V15.5029C0 14.6354 0.398778 13.8092 1.08944 13.2473L16.5061 0.7016ZM18.5 2.95719L3.08333 15.5029V34.0425H13.3611V21.7196C13.3611 21.3274 13.5235 20.9513 13.8127 20.6739C14.1018 20.3966 14.4939 20.2408 14.9028 20.2408H22.0972C22.5061 20.2408 22.8982 20.3966 23.1873 20.6739C23.4765 20.9513 23.6389 21.3274 23.6389 21.7196V34.0425H33.9167V15.5029L18.5 2.95719Z" fill="white"/>
</svg>
