<svg width="39" height="39" viewBox="0 0 39 39" fill="none" xmlns="http://www.w3.org/2000/svg">
<path d="M18.5263 36.0526H4.89474C3.86179 36.0526 2.87115 35.6423 2.14074 34.9119C1.41034 34.1815 1 33.1908 1 32.1579V4.89474C1 3.86179 1.41034 2.87115 2.14074 2.14074C2.87115 1.41034 3.86179 1 4.89474 1H32.1579C33.1908 1 34.1815 1.41034 34.9119 2.14074C35.6423 2.87115 36.0526 3.86179 36.0526 4.89474V20.4737M1 14.6316H36.0526M14.6316 1V36.0526M32.1579 38V26.3158M32.1579 26.3158L38 32.1579M32.1579 26.3158L26.3158 32.1579" stroke="white" stroke-width="2" stroke-linecap="round" stroke-linejoin="round"/>
</svg>
